<?xml version="1.0" encoding="utf-8"?>
<!-- Generator: Adobe Illustrator 26.2.1, SVG Export Plug-In . SVG Version: 6.00 Build 0)  -->
<svg version="1.1" id="Layer_1" xmlns="http://www.w3.org/2000/svg" xmlns:xlink="http://www.w3.org/1999/xlink" x="0px" y="0px"
	 viewBox="0 0 1280 129" style="enable-background:new 0 0 1280 129;" xml:space="preserve">
<style type="text/css">
	.st0{fill:#D08770;stroke:#434B60;stroke-width:1.000000e-03;stroke-miterlimit:10;}
</style>
<g transform="translate(0.000000,129.000000) scale(0.100000,-0.100000)">
	<path class="st0" d="M2615,1284c-33-2-145-8-250-14c-807-45-1633-187-2272-391L0,849V425V0h6400h6400v420c0,231-3,420-6,420
		c-4,0-63-18-133-41c-394-126-972-247-1506-313c-510-64-802-81-1410-81c-644,0-1001,21-1585,96c-591,75-1050,165-1775,349
		c-953,241-1682,360-2590,421C3641,1281,2738,1291,2615,1284z"/>
</g>
</svg>
